<svg width="50" height="50" viewBox="0 0 50 50" fill="none" xmlns="http://www.w3.org/2000/svg">
<path d="M33.333 6.72925C34.8122 5.02091 36.6872 4.16675 38.958 4.16675C40.8538 4.16675 42.4372 4.85425 43.7497 6.25008C45.0622 7.64592 45.7497 9.22925 45.833 11.0417C45.833 12.5001 45.1455 14.1876 43.7497 16.1667C42.3538 18.1459 40.9997 19.7917 39.6455 21.1459C38.2913 22.4792 36.1872 24.4584 33.333 27.0834C30.4372 24.4584 28.3122 22.4792 26.958 21.1459C25.6038 19.8126 24.2288 18.1459 22.8538 16.1667C21.4788 14.1876 20.833 12.5001 20.833 11.0417C20.833 9.14592 21.4997 7.56258 22.8538 6.25008C24.208 4.93758 25.833 4.25008 27.7288 4.16675C29.958 4.16675 31.8122 5.02091 33.333 6.72925ZM45.833 39.5834V41.6668L29.1663 46.8751L14.583 42.8334V45.8334H2.08301V22.9167H18.6872L31.5205 27.7084C32.6641 28.1398 33.6492 28.909 34.3451 29.9137C35.041 30.9185 35.4146 32.1112 35.4163 33.3334H39.583C43.0413 33.3334 45.833 36.1251 45.833 39.5834ZM10.4163 41.6668V27.0834H6.24967V41.6668H10.4163ZM41.458 38.6876C41.1247 38.0001 40.3955 37.5001 39.583 37.5001H28.4372C27.3122 37.5001 26.208 37.3334 25.1455 36.9793L20.1872 35.3334L21.4997 31.3751L26.458 33.0209C27.083 33.2293 31.2497 33.3334 31.2497 33.3334C31.2497 32.5626 30.7705 31.8751 30.0622 31.6043L17.9372 27.0834H14.583V38.5418L29.1038 42.5209L41.458 38.6876Z" fill="#001F33"/>
</svg>
