<svg width="50" height="50" viewBox="0 0 50 50" fill="none" xmlns="http://www.w3.org/2000/svg">
<path d="M48.2422 5.99253L40.1777 13.6033L47.892 26.5876L48.2422 26.1523V5.99243V5.99253ZM1.75781 6.10356V28.1634C2.19531 28.2203 2.721 28.2516 3.25146 28.2572C4.41064 28.2694 5.36611 28.1937 5.90283 28.1455L11.0449 15.1342L1.75781 6.10356ZM39.7611 16.3438L39.0736 16.7887C39.059 16.7982 38.55 17.1145 38.4005 17.2077L37.3648 17.8346L37.3795 17.8434C36.8996 18.1419 36.7662 18.2259 36.2216 18.5641C35.9452 18.7357 35.9384 18.7397 35.6763 18.9025C33.6948 17.8374 31.5448 17.0187 29.0358 16.375C25.8804 17.3283 22.5376 18.7078 19.1997 20.0021C20.5854 21.6708 22.1255 22.2141 23.6768 22.2335C25.4756 22.256 27.3145 21.4738 28.5809 20.5974L29.3035 20.0974L30.0287 21.1453L41.3034 29.283L45.7089 26.3545L39.761 16.3438H39.7611ZM12.3513 16.6114L7.9209 27.821L9.54688 29.0713L12.5542 25.6626L12.7951 25.3897L13.1584 25.367C13.3049 25.3579 13.4494 25.3536 13.592 25.3543C14.5893 25.3608 15.4809 25.6196 16.1496 26.2098C16.6449 26.6465 16.9742 27.228 17.1652 27.9012L17.3879 27.8874C18.5593 27.8141 19.6146 28.0558 20.3791 28.7301C21.1435 29.4046 21.5148 30.4218 21.5881 31.5934L21.5949 31.6989C22.2238 31.8176 22.7868 32.0653 23.2446 32.4692C24.0091 33.1436 24.3804 34.1606 24.4536 35.3322L24.4729 35.6369C24.5353 35.6566 24.5971 35.6781 24.6584 35.7011L24.8569 35.4225L25.3911 34.6727L25.6658 34.287L26.3816 34.797L32.1852 38.9314C32.8164 38.7757 33.1927 38.5334 33.402 38.2394C33.6116 37.9453 33.7177 37.5099 33.6582 36.8618L26.6994 31.8784L25.9848 31.3667L26.4916 30.659L27.143 29.7445L27.8588 30.2545L35.704 35.843C36.3353 35.6875 36.7118 35.4452 36.9211 35.1511C37.1305 34.8572 37.2365 34.4229 37.1774 33.7759L28.1542 27.3746L27.4374 26.8658L28.4544 25.4322L29.1715 25.9408L38.1963 32.3436C38.8281 32.1879 39.2048 31.9457 39.4144 31.6514C39.6241 31.357 39.7301 30.9213 39.6702 30.272L28.8851 22.4878C27.4539 23.3363 25.6231 24.016 23.6549 23.9914C21.3515 23.9625 18.8876 22.8619 17.0751 20.0802C17.0034 19.9702 16.9573 19.8456 16.9401 19.7154C16.9229 19.5852 16.9351 19.4529 16.9758 19.328C17.0165 19.2032 17.0846 19.089 17.1752 18.994C17.2658 18.8989 17.3765 18.8254 17.4992 18.7788C18.7701 18.2959 20.0542 17.7856 21.3413 17.2793L12.3515 16.612L12.3513 16.6114ZM13.6112 27.1211L8.96631 32.3858C9.05684 33.0446 9.26318 33.4543 9.54121 33.6997C9.81924 33.945 10.2517 34.0986 10.9166 34.1063L15.5614 28.8418C15.4709 28.183 15.2646 27.773 14.9865 27.5277C14.7085 27.2824 14.2762 27.1289 13.6111 27.1212L13.6112 27.1211ZM17.8405 29.6417L12.5951 35.587C12.6855 36.2459 12.892 36.6558 13.1699 36.9011C13.4482 37.1462 13.8804 37.2999 14.5454 37.3074L19.7908 31.3623C19.7004 30.7033 19.4939 30.2935 19.2159 30.0481C18.938 29.8028 18.5057 29.6492 17.8406 29.6415L17.8405 29.6417ZM20.7058 33.3805L16.0612 38.6452C16.1518 39.304 16.3581 39.7138 16.6361 39.9592C16.9143 40.2045 17.3466 40.358 18.0115 40.3657L22.6562 35.1016C22.5657 34.4424 22.3594 34.0326 22.0813 33.7872C21.8033 33.5418 21.371 33.3884 20.706 33.3807L20.7058 33.3805ZM23.1181 37.2025L19.3296 41.5267C19.4199 42.1869 19.6263 42.5972 19.9046 42.8427C20.1824 43.0878 20.6143 43.2414 21.2783 43.2493L25.067 38.925C24.9766 38.2651 24.7701 37.8547 24.4918 37.609C24.2141 37.3639 23.7822 37.2106 23.1182 37.2026L23.1181 37.2025ZM26.5694 37.6703C26.7349 38.1214 26.8305 38.6214 26.8638 39.1539L26.8864 39.5156L26.0781 40.4382L28.6879 42.2973C29.3191 42.1416 29.6953 41.8994 29.9047 41.6053C30.1142 41.3114 30.2204 40.8764 30.1613 40.2291L26.5695 37.6705L26.5694 37.6703Z" fill="#001F33"/>
</svg>
