<svg width="291" height="59" viewBox="0 0 291 59" fill="none" xmlns="http://www.w3.org/2000/svg">
<path d="M0.125 38V0.239998H2.045V38H0.125ZM3.965 38V0.239998H7.805V38H3.965ZM9.725 38V0.239998H15.485V38H9.725ZM9.469 58.672C7.97567 58.672 6.781 58.1173 5.885 57.008L6.845 55.856L7.037 55.664L7.165 55.728C7.165 55.8987 7.18633 56.048 7.229 56.176C7.31433 56.2613 7.44233 56.3893 7.613 56.56C8.16767 56.9867 8.765 57.2 9.405 57.2C10.2157 57.2 10.7917 56.9227 11.133 56.368C11.517 55.8133 11.709 54.8533 11.709 53.488V44.976H8.829V43.568H15.613V44.976H13.309V53.424C13.3517 54.6613 13.2023 55.664 12.861 56.432C12.5197 57.2 12.0503 57.776 11.453 58.16C10.8557 58.5013 10.1943 58.672 9.469 58.672ZM21.25 38V0.239998H23.17V38H21.25ZM28.93 38V0.239998H34.69V38H28.93ZM36.61 38V0.239998H40.45V38H36.61ZM31.81 58.672C30.1033 58.672 28.802 58.0107 27.906 56.688C26.9673 55.3653 26.498 53.488 26.498 51.056C26.498 48.7093 26.9673 46.8533 27.906 45.488C28.8447 44.1653 30.146 43.504 31.81 43.504C33.474 43.504 34.7753 44.1653 35.714 45.488C36.6527 46.8533 37.122 48.7093 37.122 51.056C37.122 53.488 36.6527 55.3653 35.714 56.688C34.818 58.0107 33.5167 58.672 31.81 58.672ZM31.81 57.2C32.962 57.2 33.8367 56.688 34.434 55.664C35.074 54.5973 35.394 53.0613 35.394 51.056C35.394 49.1787 35.074 47.6853 34.434 46.576C33.794 45.5093 32.9193 44.976 31.81 44.976C30.7007 44.976 29.826 45.5093 29.186 46.576C28.546 47.6853 28.226 49.1787 28.226 51.056C28.226 53.0613 28.5247 54.5973 29.122 55.664C29.762 56.688 30.658 57.2 31.81 57.2ZM42.375 38V0.239998H46.215V38H42.375ZM51.975 38V0.239998H53.895V38H51.975ZM59.655 38V0.239998H61.575V38H59.655ZM48.903 57.008H51.847V44.976H49.095V43.568H56.455V44.976H53.511V57.008H56.583V58.416H48.903V57.008ZM63.5 38V0.239998H65.42V38H63.5ZM67.34 38V0.239998H73.1V38H67.34ZM78.86 38V0.239998H82.7V38H78.86ZM69.324 43.568H70.924L77.132 54.576V43.568H78.988V43.76C78.86 43.8453 78.796 43.952 78.796 44.08C78.7533 44.1653 78.732 44.3573 78.732 44.656V58.416H77.452L70.86 46.768V58.416H69.324V43.568ZM84.625 38V0.239998H86.545V38H84.625ZM88.465 38V0.239998H92.305V38H88.465ZM98.065 38V0.239998H99.985V38H98.065ZM90.513 43.568H93.969C95.2063 43.568 96.1663 43.7387 96.849 44.08C97.5743 44.4213 98.193 44.9333 98.705 45.616C99.6863 46.896 100.177 48.7093 100.177 51.056C100.092 53.488 99.537 55.3227 98.513 56.56C97.489 57.84 95.889 58.4587 93.713 58.416H90.513V43.568ZM93.585 57.136C96.8703 57.136 98.513 55.152 98.513 51.184C98.513 49.1787 98.1503 47.6427 97.425 46.576C96.657 45.5093 95.4623 44.976 93.841 44.976H92.113V57.136H93.585ZM105.75 38V0.239998H107.67V38H105.75ZM113.43 38V0.239998H119.19V38H113.43ZM121.11 38V0.239998H124.95V38H121.11ZM116.31 58.672C114.603 58.672 113.302 58.0107 112.406 56.688C111.467 55.3653 110.998 53.488 110.998 51.056C110.998 48.7093 111.467 46.8533 112.406 45.488C113.345 44.1653 114.646 43.504 116.31 43.504C117.974 43.504 119.275 44.1653 120.214 45.488C121.153 46.8533 121.622 48.7093 121.622 51.056C121.622 53.488 121.153 55.3653 120.214 56.688C119.318 58.0107 118.017 58.672 116.31 58.672ZM116.31 57.2C117.462 57.2 118.337 56.688 118.934 55.664C119.574 54.5973 119.894 53.0613 119.894 51.056C119.894 49.1787 119.574 47.6853 118.934 46.576C118.294 45.5093 117.419 44.976 116.31 44.976C115.201 44.976 114.326 45.5093 113.686 46.576C113.046 47.6853 112.726 49.1787 112.726 51.056C112.726 53.0613 113.025 54.5973 113.622 55.664C114.262 56.688 115.158 57.2 116.31 57.2ZM126.875 38V0.239998H128.795V38H126.875ZM130.715 38V0.239998H136.475V38H130.715ZM142.235 38V0.239998H146.075V38H142.235ZM132.699 43.568H134.299L140.507 54.576V43.568H142.363V43.76C142.235 43.8453 142.171 43.952 142.171 44.08C142.128 44.1653 142.107 44.3573 142.107 44.656V58.416H140.827L134.235 46.768V58.416H132.699V43.568ZM148 38V0.239998H151.84V38H148ZM153.76 38V0.239998H159.52V38H153.76ZM161.44 38V0.239998H167.2V38H161.44ZM158.56 58.672C157.024 58.672 155.851 58.2027 155.04 57.264C154.229 56.3253 153.824 55.0027 153.824 53.296V43.568H155.68V43.76C155.552 43.8453 155.488 43.952 155.488 44.08C155.445 44.1653 155.424 44.3573 155.424 44.656V53.296C155.424 54.576 155.68 55.5573 156.192 56.24C156.661 56.9227 157.472 57.264 158.624 57.264C159.733 57.264 160.544 56.9227 161.056 56.24C161.568 55.5573 161.824 54.5547 161.824 53.232V43.568H163.424V53.232C163.424 55.0667 162.997 56.432 162.144 57.328C161.291 58.224 160.096 58.672 158.56 58.672ZM169.125 38V0.239998H172.965V38H169.125ZM174.885 38V0.239998H180.645V38H174.885ZM186.405 38V0.239998H188.325V38H186.405ZM178.661 45.04H174.501V43.568H184.741V45.04H180.389V58.416H178.661V45.04ZM190.25 38V0.239998H194.09V38H190.25ZM196.01 38V0.239998H201.77V38H196.01ZM203.69 38V0.239998H205.61V38H203.69ZM200.746 58.672C198.826 58.672 197.269 58.032 196.074 56.752L196.97 55.28L197.034 55.088L197.226 55.152C197.226 55.1947 197.247 55.28 197.29 55.408C197.29 55.4933 197.333 55.6 197.418 55.728C197.461 55.8133 197.546 55.8987 197.674 55.984C198.57 56.752 199.679 57.136 201.002 57.136C201.855 57.136 202.581 56.9013 203.178 56.432C203.775 55.92 204.074 55.3227 204.074 54.64C204.074 54.1707 203.967 53.7653 203.754 53.424C203.583 53.1253 203.263 52.8267 202.794 52.528C202.325 52.2293 201.599 51.8667 200.618 51.44C199.167 50.8853 198.122 50.2453 197.482 49.52C196.885 48.7947 196.586 47.984 196.586 47.088C196.586 45.9787 196.991 45.0827 197.802 44.4C198.613 43.7173 199.701 43.376 201.066 43.376C201.877 43.376 202.645 43.5467 203.37 43.888C204.053 44.2293 204.671 44.6773 205.226 45.232L204.138 46.704L204.01 46.576C204.01 46.5333 203.989 46.4693 203.946 46.384C203.946 46.256 203.903 46.1493 203.818 46.064C203.775 45.936 203.69 45.8293 203.562 45.744C203.221 45.4027 202.815 45.1467 202.346 44.976C201.919 44.848 201.407 44.784 200.81 44.784C200.042 44.784 199.445 44.9973 199.018 45.424C198.549 45.8507 198.314 46.3627 198.314 46.96C198.314 47.4293 198.399 47.8347 198.57 48.176C198.783 48.5173 199.146 48.8373 199.658 49.136C200.17 49.4773 200.938 49.84 201.962 50.224C203.37 50.8213 204.351 51.4187 204.906 52.016C205.418 52.656 205.674 53.4453 205.674 54.384C205.674 55.1093 205.503 55.792 205.162 56.432C204.778 57.072 204.223 57.6053 203.498 58.032C202.73 58.4587 201.813 58.672 200.746 58.672ZM211.375 38V0.239998H213.295V38H211.375ZM217.135 38V0.239998H220.975V38H217.135ZM224.815 38V0.239998H230.575V38H224.815ZM221.615 58.672C221.274 58.672 220.954 58.544 220.655 58.288C220.399 57.9893 220.271 57.6693 220.271 57.328C220.271 56.944 220.399 56.624 220.655 56.368C220.954 56.112 221.274 55.984 221.615 55.984C221.999 55.984 222.319 56.112 222.575 56.368C222.874 56.624 223.023 56.944 223.023 57.328C223.023 57.6693 222.874 57.9893 222.575 58.288C222.319 58.544 221.999 58.672 221.615 58.672ZM232.5 38V0.239998H234.42V38H232.5ZM240.18 38V0.239998H242.1V38H240.18ZM247.86 38V0.239998H251.7V38H247.86ZM243.892 58.672C242.783 58.672 241.801 58.3947 240.948 57.84C240.052 57.2853 239.348 56.4533 238.836 55.344C238.324 54.192 238.068 52.7627 238.068 51.056C238.068 49.264 238.345 47.792 238.9 46.64C239.455 45.5307 240.159 44.72 241.012 44.208C241.865 43.7387 242.783 43.504 243.764 43.504C244.831 43.504 245.748 43.76 246.516 44.272C247.284 44.784 247.86 45.488 248.244 46.384L246.836 47.088L246.644 47.152L246.58 47.024V46.832C246.58 46.6613 246.473 46.4267 246.26 46.128C245.919 45.6587 245.535 45.3173 245.108 45.104C244.681 44.8907 244.233 44.784 243.764 44.784C242.484 44.784 241.481 45.3387 240.756 46.448C240.073 47.5147 239.732 49.0293 239.732 50.992C239.732 52.1867 239.903 53.2747 240.244 54.256C240.628 55.1947 241.119 55.92 241.716 56.432C242.356 56.944 243.06 57.2 243.828 57.2C244.425 57.2 244.98 57.0507 245.492 56.752C246.047 56.4107 246.495 55.9627 246.836 55.408L248.052 56.24C247.54 57.0507 246.964 57.648 246.324 58.032C245.641 58.4587 244.831 58.672 243.892 58.672ZM253.625 38V0.239998H255.545V38H253.625ZM261.305 38V0.239998H267.065V38H261.305ZM268.985 38V0.239998H272.825V38H268.985ZM264.185 58.672C262.478 58.672 261.177 58.0107 260.281 56.688C259.342 55.3653 258.873 53.488 258.873 51.056C258.873 48.7093 259.342 46.8533 260.281 45.488C261.22 44.1653 262.521 43.504 264.185 43.504C265.849 43.504 267.15 44.1653 268.089 45.488C269.028 46.8533 269.497 48.7093 269.497 51.056C269.497 53.488 269.028 55.3653 268.089 56.688C267.193 58.0107 265.892 58.672 264.185 58.672ZM264.185 57.2C265.337 57.2 266.212 56.688 266.809 55.664C267.449 54.5973 267.769 53.0613 267.769 51.056C267.769 49.1787 267.449 47.6853 266.809 46.576C266.169 45.5093 265.294 44.976 264.185 44.976C263.076 44.976 262.201 45.5093 261.561 46.576C260.921 47.6853 260.601 49.1787 260.601 51.056C260.601 53.0613 260.9 54.5973 261.497 55.664C262.137 56.688 263.033 57.2 264.185 57.2ZM274.75 38V0.239998H276.67V38H274.75ZM278.59 38V0.239998H284.35V38H278.59ZM286.27 38V0.239998H290.11V38H286.27ZM280.318 43.568H281.662L285.31 50.864L289.022 43.568H290.302V58.416H288.702V47.216L285.502 53.232H284.862L281.854 47.28V58.416H280.318V43.568Z" fill="#0D0D0D"/>
</svg>
