<svg width="8" height="9" viewBox="0 0 8 9" fill="none" xmlns="http://www.w3.org/2000/svg">
<path d="M6.73016 2.65873L1.09524 8.30952C0.968254 8.43651 0.817355 8.5 0.64254 8.5C0.468148 8.5 0.31746 8.43651 0.190476 8.30952C0.0634919 8.18254 0 8.03164 0 7.85682C0 7.68243 0.0634919 7.53175 0.190476 7.40476L5.84127 1.76984H1.01587C0.835979 1.76984 0.685079 1.7091 0.563175 1.58762C0.441693 1.46571 0.380952 1.31481 0.380952 1.13492C0.380952 0.955026 0.441693 0.804127 0.563175 0.682222C0.685079 0.560741 0.835979 0.5 1.01587 0.5H7.36508C7.54497 0.5 7.69566 0.560741 7.81714 0.682222C7.93905 0.804127 8 0.955026 8 1.13492V7.48413C8 7.66402 7.93905 7.81471 7.81714 7.93619C7.69566 8.05809 7.54497 8.11905 7.36508 8.11905C7.18518 8.11905 7.0345 8.05809 6.91302 7.93619C6.79111 7.81471 6.73016 7.66402 6.73016 7.48413V2.65873Z" fill="#F2F2F2"/>
</svg>
